<svg width="49" height="52" viewBox="0 0 49 52" fill="none" xmlns="http://www.w3.org/2000/svg">
<path d="M43.9712 9.93222L28.6851 1.11649C26.1038 -0.372214 22.8963 -0.372112 20.3149 1.11649L5.02895 9.93222C2.44256 11.4237 0.835938 14.2052 0.835938 17.1911V34.8088C0.835938 37.7948 2.44255 40.5763 5.02884 42.0677L20.3149 50.8834C22.8967 52.3724 26.1041 52.3719 28.6851 50.8834L43.9711 42.0677C46.5574 40.5763 48.1641 37.7948 48.1641 34.8088V17.1911C48.1641 14.2053 46.5574 11.4238 43.9712 9.93222ZM44.1016 34.8088C44.1016 36.3469 43.274 37.7796 41.9417 38.5479L26.6557 47.3636C25.3259 48.1306 23.674 48.1306 22.3442 47.3636L7.05816 38.5479C5.72597 37.7795 4.89844 36.3469 4.89844 34.8088V17.1911C4.89844 15.6531 5.72597 14.2204 7.05827 13.4522L22.3442 4.63644C23.6741 3.86944 25.3265 3.86975 26.6558 4.63644L41.9418 13.4521C43.274 14.2204 44.1016 15.653 44.1016 17.1911V34.8088Z" fill="white"/>
<path d="M22.5697 24.4493L15.0255 18.0648C14.1693 17.34 12.8875 17.4467 12.1628 18.3033C11.4382 19.1599 11.545 20.4417 12.4014 21.1665L18.113 26.0002L12.4014 30.8339C11.545 31.5587 11.4383 32.8405 12.1628 33.6971C12.8892 34.5555 14.1713 34.6585 15.0255 33.9355L22.5697 27.551C23.5295 26.7388 23.5267 25.2592 22.5697 24.4493Z" fill="white"/>
<path d="M35.2865 30.353H26.1464C25.0246 30.353 24.1152 31.2625 24.1152 32.3846C24.1152 33.5066 25.0246 34.4161 26.1464 34.4161H35.2865C36.4083 34.4161 37.3178 33.5066 37.3178 32.3846C37.3178 31.2625 36.4084 30.353 35.2865 30.353Z" fill="white"/>
</svg>
